<?xml version="1.0" encoding="UTF-8"?>
<svg version="1.1" xmlns="http://www.w3.org/2000/svg" width="226" height="234">
<path d="M0 0 C74.58 0 149.16 0 226 0 C226 77.22 226 154.44 226 234 C151.42 234 76.84 234 0 234 C0 156.78 0 79.56 0 0 Z " fill="#1E1E1E" transform="translate(0,0)"/>
<path d="M0 0 C3.43023599 2.05814159 5.65505445 3.40710219 8.3828125 6.0390625 C8.98706055 6.61495117 9.59130859 7.19083984 10.21386719 7.78417969 C10.84454102 8.39165039 11.47521484 8.99912109 12.125 9.625 C16.55142307 13.82719121 20.98970223 17.92255597 25.75 21.75 C31.3495505 26.28296945 36.66920663 31.15382421 42 36 C42.33 24.12 42.66 12.24 43 0 C45.64 0 48.28 0 51 0 C51.33 12.21 51.66 24.42 52 37 C61.83232832 28.57545874 61.83232832 28.57545874 71.65039062 20.13476562 C88.36351204 5.75765864 88.36351204 5.75765864 97 0 C97 14.19 97 28.38 97 43 C101.95 43 106.9 43 112 43 C112 64.45 112 85.9 112 108 C106.06 108 100.12 108 94 108 C94 121.53 94 135.06 94 149 C84.92935762 141.22516367 76.13182966 133.20800059 67.41723633 125.04003906 C63.48262901 121.36000915 59.51031175 117.73951646 55.41796875 114.234375 C54.23487906 113.20446772 53.10914612 112.10914612 52 111 C51.67 123.21 51.34 135.42 51 148 C48.36 148 45.72 148 43 148 C43 135.79 43 123.58 43 111 C36.53157828 116.65478189 36.53157828 116.65478189 30.125 122.375 C29.28453125 123.13296875 28.4440625 123.8909375 27.578125 124.671875 C26.72734375 125.44015625 25.8765625 126.2084375 25 127 C21.67165241 130.00559873 18.33936984 133.00665039 15 136 C14.29875 136.63035156 13.5975 137.26070312 12.875 137.91015625 C12.215 138.49667969 11.555 139.08320313 10.875 139.6875 C10.31554687 140.18636719 9.75609375 140.68523437 9.1796875 141.19921875 C5.88397614 143.92201971 2.41997506 146.43501871 -1 149 C-1 135.47 -1 121.94 -1 108 C-6.61 108 -12.22 108 -18 108 C-18 86.55 -18 65.1 -18 43 C-12.06 43 -6.12 43 0 43 C0 28.81 0 14.62 0 0 Z " fill="#F7F7F7" transform="translate(66,43)"/>
<path d="M0 0 C0.33 0 0.66 0 1 0 C1.37489485 5.86681601 1.64471002 11.72648477 1.82397461 17.60253906 C1.89876317 19.593684 2.00065636 21.58402333 2.1315918 23.57226562 C3.2467926 40.96065141 3.2467926 40.96065141 -2.25415039 47.38842773 C-5.36150046 50.48380524 -8.70205893 53.1806037 -12.25994873 55.73939514 C-14.40674151 57.29466966 -16.35951437 59.02239669 -18.3125 60.8125 C-18.9003125 61.31652344 -19.488125 61.82054687 -20.09375 62.33984375 C-23.39413231 65.21415211 -26.59006339 68.20586719 -29.80078125 71.1796875 C-32 73 -32 73 -35 74 C-39.44916777 38.8542073 -39.44916777 38.8542073 -31.09579468 27.68597412 C-25.52007624 21.1311864 -18.92285761 15.57220369 -12.09375 10.36669922 C-7.88751273 7.14895426 -3.7501398 3.7501398 0 0 Z " fill="#1F1F1F" transform="translate(108,100)"/>
<path d="M0 0 C0.42632217 0.3719902 0.85264435 0.74398041 1.29188538 1.12724304 C4.26054374 3.69760012 7.24114632 6.22043159 10.36499023 8.60083008 C33.89336674 26.64083903 33.89336674 26.64083903 36.29541016 39.32373047 C37.74002919 51.16111673 36.57561127 63.22966437 35 75 C33.88342825 74.04466503 32.76710207 73.08904303 31.65087891 72.13330078 C30.718358 71.33510422 30.718358 71.33510422 29.76699829 70.52078247 C24.624045 66.09445492 19.61985424 61.50770392 14.64453125 56.89453125 C14.07105957 56.3629541 13.49758789 55.83137695 12.90673828 55.28369141 C11.78764925 54.24469622 10.67005534 53.20408757 9.55419922 52.16162109 C9.03486816 51.67902832 8.51553711 51.19643555 7.98046875 50.69921875 C7.52567139 50.27471436 7.07087402 49.85020996 6.60229492 49.4128418 C4.92391812 47.84028867 4.92391812 47.84028867 2.34423828 46.45727539 C-0.75349074 43.2101766 -0.56835255 41.19877505 -0.56648254 36.83831787 C-0.54067612 35.89651672 -0.51486969 34.95471558 -0.48828125 33.984375 C-0.48120651 33.01340881 -0.47413177 32.04244263 -0.46684265 31.04205322 C-0.43887633 27.94391506 -0.37613268 24.84759092 -0.3125 21.75 C-0.28742007 19.64846362 -0.26460637 17.54689888 -0.24414062 15.4453125 C-0.18904207 10.29617713 -0.10275293 5.148396 0 0 Z " fill="#1F1F1F" transform="translate(117,99)"/>
<path d="M0 0 C15.18 0 30.36 0 46 0 C46 16.5 46 33 46 50 C42.7 50 39.4 50 36 50 C36.13156494 49.20182861 36.26312988 48.40365723 36.39868164 47.58129883 C36.78884348 40.84227037 35.96102232 36.7242875 31.63623047 31.57958984 C27.12544766 26.71833064 22.28983557 22.20316008 17.4375 17.6875 C15.75284334 16.07671616 14.07116838 14.46280776 12.39257812 12.84570312 C8.72997692 9.31873077 5.03974134 5.82358106 1.32200623 2.3547821 C0 1 0 1 0 0 Z " fill="#1E1E1E" transform="translate(124,94)"/>
<path d="M0 0 C15.51 0 31.02 0 47 0 C42.83933972 4.85410366 38.8102522 9.18102924 34.125 13.4375 C32.81129861 14.66147222 31.49884567 15.88678548 30.1875 17.11328125 C28.06099585 19.0970433 25.92585201 21.06656173 23.76171875 23.00927734 C13.17037331 31.7431391 13.17037331 31.7431391 8.5 44 C8.59415983 46.80189493 8.59415983 46.80189493 9 49 C6.03 49 3.06 49 0 49 C0 32.83 0 16.66 0 0 Z " fill="#1E1E1E" transform="translate(56,94)"/>
<path d="M0 0 C0.33 0 0.66 0 1 0 C1 10.56 1 21.12 1 32 C-14.18 32 -29.36 32 -45 32 C-45 31.67 -45 31.34 -45 31 C-44.15179688 30.86464844 -43.30359375 30.72929687 -42.4296875 30.58984375 C-28.11572505 27.9629957 -14.66813938 22.30262166 -5.93359375 10.1171875 C-3.80211956 6.81878501 -1.75696886 3.51393772 0 0 Z " fill="#FAFAFA" transform="translate(225,202)"/>
<path d="M0 0 C15.18 0 30.36 0 46 0 C46 10.56 46 21.12 46 32 C44.39422714 29.85896952 42.80187416 27.70532785 41.30859375 25.484375 C31.4844053 11.12752341 19.52197195 4.75561431 2.67578125 1.48046875 C1.79277344 1.32191406 0.90976563 1.16335937 0 1 C0 0.67 0 0.34 0 0 Z " fill="#FBFBFB" transform="translate(180,0)"/>
<path d="M0 0 C14.52 0 29.04 0 44 0 C44 0.33 44 0.66 44 1 C42.94425781 1.20302734 42.94425781 1.20302734 41.8671875 1.41015625 C28.26275143 4.37613644 14.53877033 10.37546856 6.7109375 22.3984375 C5.25926054 24.71797166 3.8922879 27.06108462 2.53125 29.4375 C2.0259375 30.283125 1.520625 31.12875 1 32 C0.67 32 0.34 32 0 32 C0 21.44 0 10.88 0 0 Z " fill="#FAFAFA" transform="translate(0,0)"/>
<path d="M0 0 C1.62953469 2.17271292 3.24711076 4.35562462 4.796875 6.5859375 C14.39886595 20.29758057 26.35758971 27.85143589 43 31 C43 31.33 43 31.66 43 32 C28.81 32 14.62 32 0 32 C0 21.44 0 10.88 0 0 Z " fill="#FCFBFC" transform="translate(0,202)"/>
<path d="M0 0 C0 8.58 0 17.16 0 26 C-10.23 26 -20.46 26 -31 26 C-5 0 -5 0 0 0 Z " fill="#242424" transform="translate(155,60)"/>
<path d="M0 0 C3.12774326 1.56387163 4.69216497 2.43796528 7.06640625 4.72265625 C7.91102417 5.52449341 7.91102417 5.52449341 8.77270508 6.3425293 C9.3633374 6.91011963 9.95396973 7.47770996 10.5625 8.0625 C15.85515193 13.07780163 21.2555501 17.78210438 26.98828125 22.29296875 C29 24 29 24 30 26 C20.1 26 10.2 26 0 26 C0 17.42 0 8.84 0 0 Z " fill="#2B2B2B" transform="translate(73,60)"/>
<path d="M0 0 C1.32 1.32 2.64 2.64 4 4 C3.01 4.495 3.01 4.495 2 5 C2 17.54 2 30.08 2 43 C1.01 43.495 1.01 43.495 0 44 C0 29.48 0 14.96 0 0 Z " fill="#313131" transform="translate(117,99)"/>
<path d="M0 0 C4.95 0 9.9 0 15 0 C15.33 1.32 15.66 2.64 16 4 C10.72 3.01 5.44 2.02 0 1 C0 0.67 0 0.34 0 0 Z " fill="#E7E7E7" transform="translate(180,0)"/>
</svg>
